<?xml version="1.0" standalone="no"?>
<!DOCTYPE svg PUBLIC "-//W3C//DTD SVG 20010904//EN"
 "http://www.w3.org/TR/2001/REC-SVG-20010904/DTD/svg10.dtd">
<svg version="1.0" xmlns="http://www.w3.org/2000/svg"
 width="700.000000pt" height="700.000000pt" viewBox="0 0 700.000000 700.000000"
 preserveAspectRatio="xMidYMid meet">
<metadata>
Created by potrace 1.14, written by Peter Selinger 2001-2017
</metadata>
<g transform="translate(0.000000,700.000000) scale(0.100000,-0.100000)"
fill="#000000" stroke="none">
<path d="M3278 6995 c-1 -1 -41 -6 -87 -9 -124 -10 -164 -16 -351 -50 -90 -16
-200 -42 -300 -71 -131 -38 -370 -122 -385 -136 -5 -5 -14 -9 -21 -9 -18 0
-257 -117 -354 -173 -47 -28 -94 -55 -105 -61 -31 -17 -229 -149 -235 -156 -3
-3 -40 -32 -83 -64 -143 -107 -324 -276 -473 -442 -408 -453 -709 -1063 -819
-1659 -10 -49 -18 -97 -20 -105 -2 -9 -6 -43 -10 -75 -4 -33 -9 -69 -11 -80
-25 -135 -25 -673 0 -812 2 -10 7 -45 11 -78 4 -32 9 -68 11 -80 2 -11 7 -36
10 -55 17 -108 73 -327 124 -480 132 -401 330 -764 590 -1088 173 -215 324
-365 573 -568 197 -161 518 -350 792 -466 260 -111 613 -209 870 -243 22 -2
56 -7 75 -10 146 -20 548 -27 725 -11 489 43 996 200 1414 438 46 26 86 48 88
48 2 0 9 5 16 10 7 6 64 44 127 86 116 77 281 202 355 270 162 147 336 329
425 444 19 25 38 50 43 55 158 193 365 557 475 835 71 178 147 428 177 580 58
297 73 459 69 765 -1 138 -5 261 -7 275 -3 14 -8 57 -12 95 -4 39 -10 88 -15
110 -5 22 -11 60 -15 85 -9 67 -54 266 -76 340 -150 493 -343 866 -647 1247
-91 114 -352 382 -462 475 -428 360 -953 622 -1491 742 -138 30 -152 33 -434
71 -43 6 -551 15 -557 10z m477 -589 c108 -10 281 -36 350 -53 17 -4 32 -7 35
-8 340 -77 683 -223 974 -416 310 -206 604 -500 813 -814 203 -304 365 -690
428 -1020 47 -249 59 -370 59 -610 -1 -88 -4 -191 -8 -230 -4 -38 -10 -90 -12
-115 -4 -39 -21 -140 -39 -235 -12 -66 -57 -230 -86 -317 -291 -875 -962
-1550 -1840 -1852 -59 -20 -116 -39 -128 -41 -12 -2 -54 -13 -94 -24 -78 -21
-228 -50 -292 -57 -22 -2 -49 -6 -60 -9 -108 -24 -562 -24 -705 -1 -14 2 -47
7 -75 11 -132 17 -325 63 -490 116 -285 92 -625 273 -875 468 -121 94 -140
111 -285 256 -442 445 -729 1025 -815 1650 -38 274 -32 622 15 885 21 118 30
159 56 255 155 572 452 1051 899 1450 165 148 400 305 619 414 226 113 545
222 751 256 119 20 150 24 190 30 25 3 77 8 115 11 39 3 71 7 72 8 5 4 365 -2
428 -8z"/>
<path d="M2385 4655 c-94 -23 -167 -65 -230 -134 -152 -164 -147 -434 10 -594
274 -277 734 -98 750 293 6 162 -99 333 -249 404 -86 41 -191 52 -281 31z"/>
<path d="M4420 4653 c-85 -22 -140 -53 -205 -118 -225 -223 -149 -591 147
-713 86 -35 224 -36 310 -3 276 107 371 441 194 677 -31 41 -97 97 -143 121
-88 46 -209 60 -303 36z"/>
<path d="M3428 2915 c-2 -2 -23 -5 -48 -8 -254 -33 -498 -193 -628 -413 -30
-51 -93 -190 -93 -204 0 -3 -4 -22 -10 -42 -12 -45 -22 -144 -23 -213 -1 -418
316 -789 734 -856 178 -29 418 10 550 90 131 78 243 177 308 272 63 93 124
236 137 319 22 139 23 186 11 295 -23 213 -150 437 -325 575 -141 111 -334
180 -518 184 -51 2 -94 2 -95 1z"/>
</g>
</svg>
